<svg width="97.87mm" height="19.79mm" fill-rule="evenodd" stroke-linejoin="round" stroke-width="28.222"
     preserveAspectRatio="xMidYMid" viewBox="0 0 9787 1979" xmlns="http://www.w3.org/2000/svg">
    <defs>
        <clipPath id="a">
            <rect width="9787" height="1979"/>
        </clipPath>
    </defs>
    <g class="SlideGroup">
        <g class="Slide" clip-path="url(#a)">
            <g class="Page">
                <g class="Graphic">
                    <title>8-bass</title>
                    <rect class="BoundingBox" width="9787" height="1979" fill="none"/>
                    <defs>
                        <clipPath id="b">
                            <path d="m0 0h9786v1978h-9786v-1978z"/>
                        </clipPath>
                    </defs>
                    <g clip-path="url(#b)" fill="#111">
                        <path d="m2005 157c-3-8-6-15-10-22-5-9-11-16-18-23-5-5-10-9-16-13-14-7-27-11-42-11-8 0-15 1-22 3-26 7-48 15-72 28l-7 3-178 88-110 54h-1c-2 1-3 3-5 5-1 2-1 4-1 7v1l3 68-733 733s-65-14-68-16l-6-9c-5-9-7-17-8-27 0-8 2-14 6-21 1-1 1-3 2-4 9-15 18-26 28-39 8-7 13-14 18-22 5-9 9-18 11-28v-6c0-13-3-23-9-34-3-6-7-10-11-15-6-5-11-9-18-12-17-10-34-15-54-15-30 0-55 7-81 22-23 13-40 29-54 51-16 22-28 40-41 63-11 20-20 37-30 58l-2 4c-9 19-15 36-22 56-7 22-15 41-26 61-12 17-25 29-43 39-14 8-28 13-45 16l-8 2c-15 5-51 15-89 28-36 11-66 24-100 43-11 6-20 12-31 20-35 21-60 47-80 83-17 30-27 59-31 93-10 103 47 217 168 340s237 179 340 167c36-3 66-12 97-30 34-20 59-43 80-76 9-12 16-23 24-36 18-32 30-60 39-95 13-38 23-74 28-89l2-8c3-16 8-28 16-42 10-17 21-30 37-42 45-13 81-28 120-51 9-5 16-9 24-14 20-15 34-31 47-52 12-22 19-43 21-68 1-2 1-4 1-7 0-13-3-25-10-36-3-5-6-9-9-13l-4-3c-4-4-7-6-12-9-11-6-22-9-34-9-8 0-15 1-23 4-7 3-14 6-21 10-8 4-14 9-20 14-5 3-9 6-13 9-2 1-4 2-7 3-3 0-22 9-47-14l-4-3c-19-20-16-28-15-33 2-3 3-5 5-8 8-14 17-25 29-37 9-9 29-32 29-34l777-781c14-4 27-5 41-5 19 0 35 2 52 8 2 0 3 1 5 1 3 0 5-1 7-2s4-3 5-5l110-170c14 7 28 10 44 10 20 0 37-4 54-14 1-1 2-1 3-2 7-6 12-12 16-19 7-12 10-24 10-37 0-12-3-23-8-34zm-1613 1643c-3 3-9 2-14-3l-195-194c-1-1-2-2-3-4-1-1-1-3-1-5s0-3 1-5c1 0 1-1 1-1l62-62c4-4 10-2 15 2l195 195c1 1 2 2 2 3 1 2 2 3 2 5s-1 4-2 6l-63 63zm131-181-23 23c-4 3-11 3-16 0-56-46-99-89-144-144 0-1-1-1-1-2-1-2-2-4-2-6s1-4 2-6c0-1 1-1 1-2l23-23c1-1 1-1 2-1 2-1 4-2 6-2s4 1 6 2c1 0 1 0 2 1 56 45 99 88 144 144 0 0 1 1 1 2 1 2 2 3 2 6 0 2-1 4-2 6 0 0-1 1-1 2zm108-108c-1 0-1 0-2 1-2 1-4 1-6 1s-4 0-6-1c-1-1-1-1-2-1-56-45-99-88-144-143 0-1-1-1-1-2-1-2-2-4-2-6 0-3 1-5 2-7l1-1 24-23c0-1 1-1 1-2 2-1 4-1 6-1 3 0 4 0 6 1l2 2c56 45 99 88 144 143 3 5 3 12 0 16l-23 23z"/>
                        <path d="m1853 66 32-15c4-2 5-6 4-10l-16-34c-2-4-7-6-10-4l-65 31c-4 2-6 6-4 10l16 34c2 4 7 5 10 4l33-16z"/>
                        <path d="m1753 113 33-15c4-2 5-7 3-10l-16-34c-2-4-6-6-10-4l-65 31c-3 1-5 6-3 10l16 34c2 3 6 5 10 3l32-15z"/>
                        <path d="m1654 160 32-15c4-2 6-6 4-10l-16-34c-2-4-6-6-10-4l-65 31c-4 2-5 6-3 10l16 34c1 4 6 5 10 3l32-15z"/>
                        <path d="m1555 207 32-15c4-2 6-6 4-10l-16-34c-2-4-7-5-10-4l-65 31c-4 2-5 6-4 10l17 34c1 4 6 5 10 4l32-16z"/>
                        <path d="m3272 1041v596c0 180-147 327-327 327h-403l-2-1938h359c199 9 316 199 313 379l-3 269c0 49-13 95-35 136 60 60 98 141 98 231zm-327 661c38 0 68-30 68-65l-2-596c0-38-30-65-66-65h-144v726h144zm-147-987h109c22 0 44-19 44-44l2-269c0-55-27-114-65-117h-90v430zm1285 756v490h-250v-8c-25 5-49 8-77 8-190 0-343-153-343-343v-291c0-76 30-147 85-201 52-52 122-82 199-82h130v-294c0-41-35-76-76-76h-14c-43 0-76 35-76 76v207h-253v-207c0-182 147-329 329-329h14c182 0 329 147 329 329l3 721zm-327 237c41 0 77-33 77-74l-3-334-133-3c-11 0-17 5-22 8-3 6-8 11-8 22v291c0 49 40 90 89 90zm828 253c-201 0-365-163-365-365v-212h259v212c0 60 49 106 106 106 60 0 106-46 106-106v-117l-471-487v-215c0-201 164-367 365-367s365 166 365 367v169h-259v-169c0-60-46-106-106-106-57 0-106 46-106 106v109l471 490v220c0 202-164 365-365 365zm866 0c-202 0-365-163-365-365v-212h258v212c0 60 49 106 107 106 60 0 106-46 106-106v-117l-471-487v-215c0-201 163-367 365-367 201 0 364 166 364 367v169h-258v-169c0-60-46-106-106-106-58 0-107 46-107 106v109l471 490v220c0 202-163 365-364 365zm1527-1216v1210h-256v-1210c0-36-30-63-65-63-36 0-63 27-63 63v1210h-259v-1210c0-36-27-63-62-63-36 0-66 27-66 63v1224h-255v-1597h255v60c22-6 44-8 66-8 70 0 139 24 193 65 52-41 120-65 191-65 176 0 321 144 321 321zm811 726v490h-250v-8c-25 5-49 8-77 8-190 0-343-153-343-343v-291c0-76 30-147 85-201 51-52 122-82 198-82h131v-294c0-41-35-76-76-76h-14c-43 0-76 35-76 76v207h-253v-207c0-182 147-329 329-329h14c182 0 329 147 329 329l3 721zm-327 237c41 0 77-33 77-74l-3-334-134-3c-10 0-16 5-21 8-3 6-9 11-9 22v291c0 49 41 90 90 90zm1116-958v1224h-261v-1224c0-35-30-65-65-65-36 0-66 30-66 65v1224h-261v-1599h261v57c22-6 44-8 66-8 179 0 326 147 326 326zm395 1205c3-427 3-1110 0-1531l-259 2c3 419 3 1100 0 1527l259 2zm-259-1855h259v253h-259v-253zm1073 1371v490h-250v-8c-25 5-49 8-77 8-190 0-343-153-343-343v-291c0-76 30-147 85-201 51-52 122-82 198-82h131v-294c0-41-35-76-76-76h-14c-43 0-76 35-76 76v207h-253v-207c0-182 147-329 329-329h14c182 0 329 147 329 329l3 721zm-327 237c41 0 77-33 77-74l-3-334-134-3c-10 0-16 5-21 8-3 6-8 11-8 22v291c0 49 40 90 89 90z"/>
                    </g>
                </g>
            </g>
        </g>
    </g>
</svg>
